<?xml version="1.0" encoding="UTF-8" standalone="no"?>
<svg xmlns:dc="http://purl.org/dc/elements/1.1/" xmlns:cc="http://creativecommons.org/ns#" xmlns:rdf="http://www.w3.org/1999/02/22-rdf-syntax-ns#" xmlns:svg="http://www.w3.org/2000/svg" xmlns="http://www.w3.org/2000/svg" xmlns:sodipodi="http://sodipodi.sourceforge.net/DTD/sodipodi-0.dtd" xmlns:inkscape="http://www.inkscape.org/namespaces/inkscape" inkscape:version="1.0beta1 (76ce730, 2019-10-19)" sodipodi:docname="Logo DGFP-fr.svg" viewBox="0 0 600 318.99999" height="319" width="600" xml:space="preserve" id="svg833" version="1.1"><metadata id="metadata839"><rdf:RDF><cc:Work rdf:about=""><dc:format>image/svg+xml</dc:format><dc:type rdf:resource="http://purl.org/dc/dcmitype/StillImage"/><dc:title/></cc:Work></rdf:RDF></metadata><defs id="defs837"><linearGradient id="linearGradient1165" spreadMethod="pad" gradientTransform="matrix(-14.54016,1.3e-6,1.3e-6,14.522721,61.018311,51.865032)" gradientUnits="userSpaceOnUse" y2="0" x2="1" y1="0" x1="0"><stop id="stop1159" offset="0" style="stop-opacity:1;stop-color:#876133"/><stop id="stop1161" offset="0.285714" style="stop-opacity:1;stop-color:#d59b21"/><stop id="stop1163" offset="1" style="stop-opacity:1;stop-color:#d59b21"/></linearGradient><linearGradient id="linearGradient1215" spreadMethod="pad" gradientTransform="matrix(25.78248,0,0,-16.397681,34.605835,60.586956)" gradientUnits="userSpaceOnUse" y2="0" x2="1" y1="0" x1="0"><stop id="stop1209" offset="0" style="stop-opacity:1;stop-color:#004d6d"/><stop id="stop1211" offset="0.27619" style="stop-opacity:1;stop-color:#004d6d"/><stop id="stop1213" offset="1" style="stop-opacity:1;stop-color:#6192a7"/></linearGradient></defs><sodipodi:namedview inkscape:current-layer="g841" inkscape:window-maximized="0" inkscape:window-y="0" inkscape:window-x="0" inkscape:cy="714.16444" inkscape:cx="143.67642" inkscape:zoom="0.35" showgrid="false" id="namedview835" inkscape:window-height="900" inkscape:window-width="1440" inkscape:pageshadow="2" inkscape:pageopacity="0" guidetolerance="10" gridtolerance="10" objecttolerance="10" borderopacity="1" inkscape:document-rotation="0" bordercolor="#666666" pagecolor="#ffffff"/><g transform="matrix(1.3333333,0,0,-1.3333333,0,1122.52)" inkscape:label="Logo DGFP-fr" inkscape:groupmode="layer" id="g841"><g transform="matrix(4.4506964,0,0,4.4506964,11.666562,535.54162)" id="g1447"><path inkscape:connector-curvature="0" id="path1133" style="opacity:1;fill:#d59b21;fill-opacity:1;fill-rule:nonzero;stroke:none;stop-opacity:1" d="m 49.1687,50.7487 h -2.599 v -6.681 c 0,-6.587 1.259,-8.338 4.238,-10.094 l 0.058,0.066 c -1.439,1.64 -1.697,4.885 -1.697,9.37 v 7.339"/><path inkscape:connector-curvature="0" id="path1145" style="opacity:1;fill:#876133;fill-opacity:1;fill-rule:nonzero;stroke:none;stop-opacity:1" d="m 52.7546,64.7877 h -6.185 v -11.322 c 1.116,0 2.132,0 2.599,-10e-4 v 9.215 h 3.189 c 3.179,0 5.405,-0.44 6.605,-1.726 0.736,-0.789 1.156,-2.185 1.049,-3.556 0.195,0.49 0.332,1.04 0.377,1.589 0,-0.009 -10e-4,0.01 0,0 -0.262,4.592 -2.793,5.801 -7.634,5.801"/><path d="M 46.57,64.787 V 53.465 h 2.599 v 9.215 h 3.188 c 3.179,0 5.406,-0.44 6.606,-1.727 v 0 c 0.736,-0.788 1.156,-2.185 1.049,-3.555 v 0 c 0.194,0.49 0.332,1.04 0.376,1.589 v 0 c 0,-0.005 0,-0.003 0,0 v 0 c -10e-4,0.002 -10e-4,0.004 0,0 v 0 c -0.262,4.592 -2.792,5.8 -7.634,5.8 v 0 z" style="opacity:1;fill:url(#linearGradient1165);stroke:none;stop-opacity:1" id="path1167" inkscape:connector-curvature="0"/><path d="M 49.169,49.431 H 46.57 v 1.318 h 2.599 z" style="opacity:1;fill:#a77a2f;fill-opacity:1;fill-rule:nonzero;stroke:none;stop-opacity:1" id="path1177" inkscape:connector-curvature="0"/><path inkscape:connector-curvature="0" id="path1181" style="opacity:1;fill:#004c6c;fill-opacity:1;fill-rule:nonzero;stroke:none;stop-opacity:1" d="m 61.2594,62.901 -0.665,5.088 h -21.782 v -0.794 c 1.033,-0.262 2.18,-0.593 2.56,-0.757 1.114,-0.477 1.364,-1.304 1.364,-4.475 V 42.481 c 0,-3.192 -0.254,-4.009 -1.386,-4.486 -0.607,-0.255 -1.834,-0.561 -2.538,-0.746 v -0.794 h 6.524 v 29.426 h 7.36 c 3.144,0 6.34,-0.446 7.647,-2.98 h 0.916"/><path d="m 45.336,49.431 h -2.599 v 1.318 h 2.599 z" style="opacity:1;fill:#001f33;fill-opacity:1;fill-rule:nonzero;stroke:none;stop-opacity:1" id="path1183" inkscape:connector-curvature="0"/><path inkscape:connector-curvature="0" id="path1195" style="opacity:1;fill:#004d6d;fill-opacity:1;fill-rule:nonzero;stroke:none;stop-opacity:1" d="m 58.8179,53.7447 c -1.207,-1.501 -3.527,-2.996 -9.416,-2.996 h -6.875 c -4.779,0 -7.018,-1.619 -7.834,-4.959 h -0.087 c -0.02,3.925 2.868,7.675 8.045,7.675 1.444,0 5.976,0.002 6.692,0 5.251,-0.009 8.521,0.607 10.177,3 0.446,0.642 0.792,1.583 0.868,2.522 0.139,-1.955 -0.349,-3.724 -1.57,-5.242"/><path d="M 59.521,56.464 C 57.864,54.072 54.594,53.456 49.342,53.465 v 0 c -0.715,10e-4 -5.247,0 -6.691,0 v 0 c -5.178,0 -8.065,-3.751 -8.045,-7.676 v 0 h 0.086 c 0.817,3.341 3.056,4.959 7.835,4.959 v 0 h 6.875 c 5.889,0 8.209,1.495 9.416,2.996 v 0 c 1.221,1.519 1.71,3.288 1.57,5.243 v 0 c -0.076,-0.939 -0.423,-1.88 -0.867,-2.523" style="opacity:1;fill:url(#linearGradient1215);stroke:none;stop-opacity:1" id="path1217" inkscape:connector-curvature="0"/></g><g transform="matrix(4.4506964,0,0,4.4506964,1.9968366,535.54162)" id="g1799"><g id="g1757" transform="matrix(0.58085069,0,0,0.58085069,3.4470924,23.862259)"><path d="m 3.315598,-1.169116 -0.222,1.011 c -0.146,0.682 -0.587,0.866 -2.648,0.866 h -2.153 v -5.096 h 2.135 c 1.692,0 1.968,0.055 2.133,0.699 l 0.203,0.772 h 0.275 v -3.696 h -0.275 l -0.221,0.771 c -0.184,0.644 -0.423,0.7 -2.115,0.7 h -2.135 v -3.44 c 0,-1.582 0.276,-1.747 1.05,-1.895 l 1.176,-0.22 v -0.259 h -5.775 v 0.259 l 0.809,0.22 c 0.754,0.203 0.865,0.313 0.865,1.895 v 7.67 c 0,1.582 -0.111,1.692 -0.865,1.895 l -0.809,0.22 v 0.258 h 8.866 v -2.63 h -0.294" style="opacity:1;fill:#004c6c;fill-opacity:1;fill-rule:nonzero;stroke:none;stop-opacity:1" id="path1229" inkscape:connector-curvature="0"/><path d="m 4.799998,-10.955916 v 0.22 l 0.688,0.187 c 0.642,0.173 0.735,0.266 0.735,1.611 v 6.523 c 0,1.345 -0.093,1.439 -0.735,1.61 l -0.688,0.188 v 0.22 h 4.442 v -0.22 l -0.688,-0.188 c -0.642,-0.171 -0.734,-0.265 -0.734,-1.61 v -6.523 c 0,-1.345 0.092,-1.438 0.734,-1.611 l 0.688,-0.187 v -0.22 h -4.442" style="opacity:1;fill:#004c6c;fill-opacity:1;fill-rule:nonzero;stroke:none;stop-opacity:1" id="path1233" inkscape:connector-curvature="0"/><path d="m 21.410898,-0.805016 c -0.61,-0.171 -0.72,-0.5 -0.72,-3.017 v -7.322 h -0.734 l -6.085,7.697 c -0.469,0.593 -0.782,0.984 -0.924,1.298 h -0.029 c 0,-0.188 0.015,-0.641 0.015,-0.94 v -3.658 c 0,-3.348 0.203,-3.629 0.891,-3.786 l 0.923,-0.203 v -0.22 h -4.083 v 0.22 l 0.689,0.187 c 0.61,0.173 0.719,0.501 0.719,3.02 v 5.114 c 0,1.345 -0.25,1.47 -0.89,1.61 l -0.845,0.188 v 0.22 l 3.253,0.015 5.301,-6.835 c 0.408,-0.516 0.799,-1.033 0.924,-1.377 h 0.032 c 0,0.391 -0.017,0.939 -0.017,1.127 v 2.862 c 0,3.347 -0.203,3.629 -0.892,3.786 l -0.922,0.202 v 0.22 h 4.082 v -0.22 l -0.688,-0.188" style="opacity:1;fill:#004c6c;fill-opacity:1;fill-rule:nonzero;stroke:none;stop-opacity:1" id="path1237" inkscape:connector-curvature="0"/><path d="m 29.138998,-10.955916 v 0.22 l 0.688,0.187 c 0.642,0.173 0.799,0.361 0.33,1.611 l -0.657,1.783 h -3.896 l -0.406,-1.031 c -0.751,-1.909 -0.626,-2.159 0.079,-2.363 l 0.657,-0.187 v -0.22 h -3.629 v 0.22 l 0.437,0.156 c 0.61,0.219 0.735,0.392 1.408,1.986 l 3.551,8.477 h 0.767 l 3.409,-8.821 c 0.5,-1.298 0.656,-1.423 1.268,-1.642 l 0.437,-0.156 v -0.22 z m -1.048,7.649 c 0,0 -0.39,1.095 -0.437,1.346 h -0.031 c -0.047,-0.219 -0.486,-1.346 -0.486,-1.346 l -1.266,-3.19 h 3.394 l -1.174,3.19" style="opacity:1;fill:#004c6c;fill-opacity:1;fill-rule:nonzero;stroke:none;stop-opacity:1" id="path1241" inkscape:connector-curvature="0"/><path d="m 45.203698,-0.805016 c -0.61,-0.171 -0.721,-0.5 -0.721,-3.017 v -7.322 h -0.733 l -6.085,7.697 c -0.471,0.593 -0.783,0.984 -0.923,1.298 h -0.03 c 0,-0.188 0.015,-0.641 0.015,-0.94 v -3.658 c 0,-3.348 0.203,-3.629 0.891,-3.786 l 0.922,-0.203 v -0.22 h -4.082 v 0.22 l 0.688,0.187 c 0.61,0.173 0.72,0.501 0.72,3.02 v 5.114 c 0,1.345 -0.251,1.47 -0.892,1.61 l -0.844,0.188 v 0.22 l 3.252,0.015 5.303,-6.835 c 0.406,-0.516 0.798,-1.033 0.924,-1.377 h 0.031 c 0,0.391 -0.016,0.939 -0.016,1.127 v 2.862 c 0,3.347 -0.204,3.629 -0.892,3.786 l -0.922,0.202 v 0.22 h 4.082 v -0.22 l -0.688,-0.188" style="opacity:1;fill:#004c6c;fill-opacity:1;fill-rule:nonzero;stroke:none;stop-opacity:1" id="path1245" inkscape:connector-curvature="0"/><path d="m 55.806898,-10.642516 c -0.53,-0.204 -1.814,-0.532 -3.143,-0.532 -3.347,0 -5.755,2.066 -5.755,5.506 0,3.441 2.314,5.568 5.614,5.568 1.33,0 2.378,-0.219 3.175,-0.501 v -2.377 h -0.282 l -0.203,0.877 c -0.219,0.969 -1.642,1.343 -2.659,1.343 -2.676,0 -3.8,-2.203 -3.8,-4.613 0,-2.862 1.455,-5.162 4.285,-5.162 1.018,0 2.174,0.407 2.581,1.315 l 0.359,0.796 0.282,-0.078 -0.454,-2.142" style="opacity:1;fill:#004c6c;fill-opacity:1;fill-rule:nonzero;stroke:none;stop-opacity:1" id="path1249" inkscape:connector-curvature="0"/><path d="m 65.161298,-10.955916 h -7.602 v 0.22 l 0.688,0.187 c 0.641,0.173 0.736,0.266 0.736,1.611 v 6.523 c 0,1.345 -0.095,1.439 -0.736,1.61 l -0.688,0.188 v 0.22 h 7.384 v -2.082 h -0.251 l -0.188,0.705 c -0.157,0.578 -0.5,0.735 -2.253,0.735 h -1.673 v -4.019 h 1.658 c 1.439,0 1.658,0.046 1.815,0.593 l 0.172,0.579 h 0.234 v -3.065 h -0.234 l -0.188,0.656 c -0.157,0.548 -0.36,0.595 -1.799,0.595 h -1.658 v -3.004 c 0,-1.47 0.219,-1.611 0.861,-1.611 h 1.205 c 1.611,0 2.064,0.251 2.375,0.893 l 0.346,0.718 0.265,-0.061 -0.469,-2.191" style="opacity:1;fill:#004c6c;fill-opacity:1;fill-rule:nonzero;stroke:none;stop-opacity:1" id="path1253" inkscape:connector-curvature="0"/><path d="m 69.899698,-11.205816 c -0.798,0 -1.814,0.202 -2.502,0.532 l -0.36,2.22 0.281,0.079 0.359,-0.843 c 0.298,-0.69 1.034,-1.3 2.362,-1.3 1.221,0 2.363,0.674 2.363,2.033 0,1.079 -0.876,1.691 -1.72,2.08 l -1.033,0.486 c -1.142,0.532 -2.221,1.393 -2.221,2.8 0,1.829 1.642,2.94 3.364,2.94 0.405,0 1.501,-0.047 2.454,-0.5 v -2.237 h -0.282 l -0.203,0.83 c -0.14,0.593 -0.735,1.25 -2.096,1.25 -1.032,0 -1.987,-0.626 -1.987,-1.721 0,-0.922 0.877,-1.501 1.784,-1.922 l 1.017,-0.471 c 1.126,-0.516 2.268,-1.345 2.268,-2.861 0,-2.253 -1.908,-3.395 -3.848,-3.395" style="opacity:1;fill:#004c6c;fill-opacity:1;fill-rule:nonzero;stroke:none;stop-opacity:1" id="path1257" inkscape:connector-curvature="0"/><path d="m 82.631698,-6.747216 -0.016,0.548 c 1.438,0 3.05,0.688 3.05,2.579 0,1.8 -1.047,2.675 -2.752,2.675 h -0.86 v -7.993 c 0,-1.345 0.235,-1.485 0.89,-1.611 l 1.002,-0.187 v -0.22 h -4.912 v 0.22 l 0.689,0.187 c 0.641,0.173 0.734,0.266 0.734,1.611 v 6.523 c 0,1.345 -0.093,1.439 -0.734,1.61 l -0.689,0.188 v 0.22 h 4.24 c 2.032,0 4.113,-0.375 4.113,-2.909 0,-2.597 -2.784,-3.41 -4.755,-3.441" style="opacity:1;fill:#004c6c;fill-opacity:1;fill-rule:nonzero;stroke:none;stop-opacity:1" id="path1261" inkscape:connector-curvature="0"/><path d="m 98.961298,-0.805016 c -0.61,-0.171 -0.719,-0.484 -0.719,-3.003 v -2.158 c 0,-2.738 -0.846,-5.24 -4.271,-5.24 -2.83,0 -4.223,1.862 -4.223,4.552 v 4.239 c 0,1.345 -0.093,1.439 -0.735,1.61 l -0.688,0.188 v 0.22 h 4.442 v -0.22 l -0.688,-0.188 c -0.642,-0.171 -0.736,-0.265 -0.736,-1.61 v -3.863 c 0,-1.94 0.642,-4.082 3.051,-4.082 2.579,0 2.987,2.377 2.987,4.457 v 1.298 c 0,3.347 -0.141,3.613 -0.813,3.786 l -0.766,0.202 v 0.22 h 3.847 v -0.22 l -0.688,-0.188" style="opacity:1;fill:#004c6c;fill-opacity:1;fill-rule:nonzero;stroke:none;stop-opacity:1" id="path1265" inkscape:connector-curvature="0"/><path d="m 104.6389,-10.955916 h -4.162 v 0.22 l 0.69,0.187 c 0.64,0.173 0.734,0.266 0.734,1.611 v 6.523 c 0,1.345 -0.094,1.439 -0.734,1.61 l -0.69,0.188 v 0.22 h 4.193 c 1.331,0 3.895,0 3.895,-2.269 0,-1.36 -1.549,-2.19 -2.237,-2.361 v -0.063 c 1.376,-0.032 2.737,-0.97 2.737,-2.612 0,-2.393 -2.3,-3.254 -4.426,-3.254 m -0.423,10.027 h -0.719 v -4.098 h 0.938 c 0.672,0 2.441,0.187 2.441,2.095 0,1.862 -1.549,2.003 -2.66,2.003 m 0.345,-4.661 h -1.064 v -3.191 c 0,-1.469 0.219,-1.611 0.86,-1.611 h 0.236 c 1.329,0 2.658,0.579 2.658,2.424 0,1.955 -1.314,2.378 -2.69,2.378" style="opacity:1;fill:#004c6c;fill-opacity:1;fill-rule:nonzero;stroke:none;stop-opacity:1" id="path1269" inkscape:connector-curvature="0"/><path d="m 117.9637,-10.955916 h -7.443 v 0.22 l 0.687,0.187 c 0.642,0.173 0.735,0.266 0.735,1.611 v 6.523 c 0,1.345 -0.093,1.439 -0.735,1.61 l -0.687,0.188 v 0.22 h 4.753 v -0.22 l -0.922,-0.188 c -0.657,-0.14 -0.814,-0.265 -0.814,-1.61 v -6.289 c 0,-1.47 0.22,-1.611 0.86,-1.611 h 0.986 c 1.611,0 2.128,0.22 2.378,0.893 l 0.374,1.032 0.33,-0.064 -0.502,-2.502" style="opacity:1;fill:#004c6c;fill-opacity:1;fill-rule:nonzero;stroke:none;stop-opacity:1" id="path1273" inkscape:connector-curvature="0"/><path d="m 119.5133,-10.955916 v 0.22 l 0.688,0.187 c 0.642,0.173 0.735,0.266 0.735,1.611 v 6.523 c 0,1.345 -0.093,1.439 -0.735,1.61 l -0.688,0.188 v 0.22 h 4.442 v -0.22 l -0.688,-0.188 c -0.642,-0.171 -0.736,-0.265 -0.736,-1.61 v -6.523 c 0,-1.345 0.094,-1.438 0.736,-1.611 l 0.688,-0.187 v -0.22 h -4.442" style="opacity:1;fill:#004c6c;fill-opacity:1;fill-rule:nonzero;stroke:none;stop-opacity:1" id="path1277" inkscape:connector-curvature="0"/><path d="m 131.8229,-12.628516 -2.111,1.454 c -2.785,0.281 -4.679,2.143 -4.679,5.475 0,3.472 2.739,5.599 5.445,5.599 2.908,0 5.458,-1.719 5.458,-5.599 0,-2.941 -2.127,-5.13 -4.786,-5.459 l 1.659,-0.72 c 1.376,-0.595 2.862,-1.283 4.112,-0.766 l 0.109,-0.282 c -1.86,-0.985 -3.456,-0.906 -5.207,0.298 m -1.361,11.918 c -1.69,0 -3.613,-1.313 -3.613,-4.989 0,-3.551 1.782,-4.881 3.629,-4.881 1.845,0 3.628,1.33 3.628,4.881 0,3.598 -1.845,4.989 -3.644,4.989" style="opacity:1;fill:#004c6c;fill-opacity:1;fill-rule:nonzero;stroke:none;stop-opacity:1" id="path1281" inkscape:connector-curvature="0"/><path d="m 147.3861,-0.805016 c -0.611,-0.171 -0.72,-0.484 -0.72,-3.003 v -2.158 c 0,-2.738 -0.845,-5.24 -4.27,-5.24 -2.832,0 -4.224,1.862 -4.224,4.552 v 4.239 c 0,1.345 -0.094,1.439 -0.734,1.61 l -0.69,0.188 v 0.22 h 4.444 v -0.22 l -0.689,-0.188 c -0.641,-0.171 -0.735,-0.265 -0.735,-1.61 v -3.863 c 0,-1.94 0.64,-4.082 3.05,-4.082 2.581,0 2.987,2.377 2.987,4.457 v 1.298 c 0,3.347 -0.14,3.613 -0.813,3.786 l -0.766,0.202 v 0.22 h 3.847 v -0.22 l -0.687,-0.188" style="opacity:1;fill:#004c6c;fill-opacity:1;fill-rule:nonzero;stroke:none;stop-opacity:1" id="path1285" inkscape:connector-curvature="0"/><path d="m 156.5037,-10.955916 h -7.602 v 0.22 l 0.69,0.187 c 0.641,0.173 0.734,0.266 0.734,1.611 v 6.523 c 0,1.345 -0.093,1.439 -0.734,1.61 l -0.69,0.188 v 0.22 h 7.384 v -2.082 h -0.251 l -0.188,0.705 c -0.156,0.578 -0.5,0.735 -2.252,0.735 h -1.673 v -4.019 h 1.657 c 1.44,0 1.658,0.046 1.815,0.593 l 0.171,0.579 h 0.235 v -3.065 h -0.235 l -0.187,0.656 c -0.156,0.548 -0.359,0.595 -1.799,0.595 h -1.657 v -3.004 c 0,-1.47 0.218,-1.611 0.86,-1.611 h 1.204 c 1.61,0 2.065,0.251 2.377,0.893 l 0.345,0.718 0.266,-0.061 -0.47,-2.191" style="opacity:1;fill:#004c6c;fill-opacity:1;fill-rule:nonzero;stroke:none;stop-opacity:1" id="path1289" inkscape:connector-curvature="0"/><path d="m 161.5029,-11.250316 c -0.914,0 -2.078,0.234 -2.866,0.61 l -0.412,2.544 0.322,0.09 0.412,-0.968 c 0.341,-0.788 1.183,-1.487 2.705,-1.487 1.398,0 2.705,0.771 2.705,2.33 0,1.236 -1.003,1.934 -1.97,2.383 l -1.183,0.554 c -1.307,0.61 -2.545,1.596 -2.545,3.207 0,2.097 1.883,3.368 3.854,3.368 0.465,0 1.719,-0.052 2.812,-0.572 v -2.563 h -0.322 l -0.233,0.951 c -0.161,0.68 -0.841,1.432 -2.401,1.432 -1.184,0 -2.276,-0.717 -2.276,-1.97 0,-1.058 1.004,-1.721 2.044,-2.204 l 1.164,-0.537 c 1.29,-0.591 2.598,-1.541 2.598,-3.279 0,-2.581 -2.185,-3.889 -4.408,-3.889" style="opacity:1;fill:#004c6c;fill-opacity:1;fill-rule:nonzero;stroke:none;stop-opacity:1" id="path1293" inkscape:connector-curvature="0"/></g><g id="g1738" transform="matrix(0.58085069,0,0,0.58085069,24.083701,23.862259)"><g id="g1715"><path inkscape:connector-curvature="0" id="path1297" style="opacity:1;fill:#004c6c;fill-opacity:1;fill-rule:nonzero;stroke:none;stop-opacity:1" d="m -3.581302,10.127384 h 1.617 c 1.27,0 1.507,-0.846 1.507,-2.29 0,-0.713 0.11,-2.342 -1.546,-2.342 h -1.578 z m 0.969,-3.92 h 0.468 c 0.59,0 0.707,0.443 0.707,1.604 0,0.854 0,1.604 -0.675,1.604 h -0.5 v -3.208"/><path d="m 1.583998,10.127284 h 0.968 v -4.632 h -0.968 z" style="opacity:1;fill:#004c6c;fill-opacity:1;fill-rule:nonzero;stroke:none;stop-opacity:1" id="path1299" inkscape:connector-curvature="0"/><path inkscape:connector-curvature="0" id="path1303" style="opacity:1;fill:#004c6c;fill-opacity:1;fill-rule:nonzero;stroke:none;stop-opacity:1" d="m 5.579698,5.495384 h -0.968 v 4.632 h 1.79 c 0.661,0 1.084,-0.423 1.084,-1.212 0,-0.59 -0.231,-1.033 -0.86,-1.136 v -0.014 c 0.212,-0.024 0.84,-0.076 0.84,-0.91 0,-0.295 0.02,-1.168 0.109,-1.36 h -0.949 c -0.128,0.282 -0.103,0.596 -0.103,0.898 0,0.552 0.051,1.02 -0.692,1.02 h -0.251 z m 0,2.631 h 0.43 c 0.385,0 0.493,0.384 0.493,0.679 0,0.443 -0.185,0.61 -0.493,0.61 h -0.43 v -1.289"/><path inkscape:connector-curvature="0" id="path1307" style="opacity:1;fill:#004c6c;fill-opacity:1;fill-rule:nonzero;stroke:none;stop-opacity:1" d="m 9.460998,5.495384 v 4.632 h 2.527 v -0.712 h -1.558 v -1.141 h 1.437 v -0.713 h -1.437 v -1.354 h 1.609 v -0.712 z"/><path inkscape:connector-curvature="0" id="path1311" style="opacity:1;fill:#004c6c;fill-opacity:1;fill-rule:nonzero;stroke:none;stop-opacity:1" d="m 13.887498,7.811784 c 0,1.225 0,2.393 1.598,2.393 0.988,0 1.385,-0.546 1.346,-1.54 h -0.949 c 0,0.617 -0.11,0.848 -0.397,0.848 -0.546,0 -0.617,-0.513 -0.617,-1.701 0,-1.188 0.071,-1.701 0.617,-1.701 0.448,0 0.43,0.578 0.442,0.945 h 0.956 c 0,-1.239 -0.494,-1.636 -1.398,-1.636 -1.598,0 -1.598,1.18 -1.598,2.392"/><path inkscape:connector-curvature="0" id="path1315" style="opacity:1;fill:#004c6c;fill-opacity:1;fill-rule:nonzero;stroke:none;stop-opacity:1" d="m 21.521898,10.127384 v -0.77 h -1.077 v -3.862 h -0.97 v 3.862 h -1.078 v 0.77 z"/><path d="m 23.233998,10.127284 h 0.968 v -4.632 h -0.968 z" style="opacity:1;fill:#004c6c;fill-opacity:1;fill-rule:nonzero;stroke:none;stop-opacity:1" id="path1317" inkscape:connector-curvature="0"/><path inkscape:connector-curvature="0" id="path1321" style="opacity:1;fill:#004c6c;fill-opacity:1;fill-rule:nonzero;stroke:none;stop-opacity:1" d="m 26.236698,7.811784 c 0,1.225 0,2.393 1.598,2.393 1.597,0 1.597,-1.168 1.597,-2.393 0,-1.212 0,-2.392 -1.597,-2.392 -1.598,0 -1.598,1.18 -1.598,2.392 m 2.212,0 c 0,1.188 -0.07,1.701 -0.614,1.701 -0.546,0 -0.618,-0.513 -0.618,-1.701 0,-1.188 0.072,-1.701 0.618,-1.701 0.544,0 0.614,0.513 0.614,1.701"/><path inkscape:connector-curvature="0" id="path1325" style="opacity:1;fill:#004c6c;fill-opacity:1;fill-rule:nonzero;stroke:none;stop-opacity:1" d="m 31.470998,5.495384 v 4.632 h 1.309 l 1.232,-3.208 h 0.013 v 3.208 h 0.904 v -4.632 h -1.277 l -1.263,3.388 h -0.012 v -3.388 z"/><path inkscape:connector-curvature="0" id="path1329" style="opacity:1;fill:#004c6c;fill-opacity:1;fill-rule:nonzero;stroke:none;stop-opacity:1" d="m 41.813298,8.702384 c 0.005,0.431 -0.064,0.81 -0.577,0.81 -0.604,0 -0.604,-0.816 -0.604,-1.714 0,-1.45 0.142,-1.707 0.692,-1.707 0.161,0 0.335,0.039 0.483,0.09 v 1.028 h -0.527 v 0.711 h 1.495 v -2.348 c -0.264,-0.05 -0.924,-0.153 -1.309,-0.153 -1.629,0 -1.816,0.672 -1.816,2.43 0,1.168 0.059,2.355 1.643,2.355 0.95,0 1.539,-0.532 1.482,-1.502 h -0.962"/><path inkscape:connector-curvature="0" id="path1333" style="opacity:1;fill:#004c6c;fill-opacity:1;fill-rule:nonzero;stroke:none;stop-opacity:1" d="m 44.878898,5.495384 v 4.632 h 2.529 v -0.712 h -1.559 v -1.141 h 1.436 v -0.713 h -1.436 v -1.354 h 1.611 v -0.712 z m 2.092,6.023 -1.026,-0.917 h -0.418 l 0.578,0.917 z"/><path inkscape:connector-curvature="0" id="path1337" style="opacity:1;fill:#004c6c;fill-opacity:1;fill-rule:nonzero;stroke:none;stop-opacity:1" d="m 49.357298,5.495384 v 4.632 h 1.309 l 1.231,-3.208 h 0.013 v 3.208 h 0.905 v -4.632 h -1.276 l -1.264,3.388 h -0.014 v -3.388 z"/><path inkscape:connector-curvature="0" id="path1341" style="opacity:1;fill:#004c6c;fill-opacity:1;fill-rule:nonzero;stroke:none;stop-opacity:1" d="m 54.893298,5.495384 v 4.632 h 2.528 v -0.712 h -1.56 v -1.141 h 1.438 v -0.713 h -1.438 v -1.354 h 1.611 v -0.712 z m 2.091,6.023 -1.026,-0.917 h -0.416 l 0.577,0.917 z"/><path inkscape:connector-curvature="0" id="path1345" style="opacity:1;fill:#004c6c;fill-opacity:1;fill-rule:nonzero;stroke:none;stop-opacity:1" d="m 60.314898,5.495384 h -0.97 v 4.632 h 1.791 c 0.661,0 1.083,-0.423 1.083,-1.212 0,-0.59 -0.23,-1.033 -0.859,-1.136 v -0.014 c 0.212,-0.024 0.841,-0.076 0.841,-0.91 0,-0.295 0.018,-1.168 0.109,-1.36 h -0.95 c -0.128,0.282 -0.102,0.596 -0.102,0.898 0,0.552 0.051,1.02 -0.693,1.02 h -0.25 z m 0,2.631 h 0.429 c 0.385,0 0.493,0.384 0.493,0.679 0,0.443 -0.185,0.61 -0.493,0.61 h -0.429 v -1.289"/><path inkscape:connector-curvature="0" id="path1349" style="opacity:1;fill:#004c6c;fill-opacity:1;fill-rule:nonzero;stroke:none;stop-opacity:1" d="m 63.843698,5.495384 1.282,4.632 h 1.276 l 1.259,-4.632 h -1.021 l -0.258,1.027 h -1.32 l -0.264,-1.027 z m 1.866,3.74 h -0.012 l -0.444,-2.001 h 0.924 z"/><path inkscape:connector-curvature="0" id="path1353" style="opacity:1;fill:#004c6c;fill-opacity:1;fill-rule:nonzero;stroke:none;stop-opacity:1" d="m 69.386098,5.495384 v 4.632 h 0.968 v -3.862 h 1.45 v -0.77 z"/><path inkscape:connector-curvature="0" id="path1357" style="opacity:1;fill:#004c6c;fill-opacity:1;fill-rule:nonzero;stroke:none;stop-opacity:1" d="m 73.491698,5.495384 v 4.632 h 2.527 v -0.712 h -1.559 v -1.141 h 1.436 v -0.713 h -1.436 v -1.354 h 1.61 v -0.712 z"/><path inkscape:connector-curvature="0" id="path1361" style="opacity:1;fill:#004c6c;fill-opacity:1;fill-rule:nonzero;stroke:none;stop-opacity:1" d="m 80.669298,10.127384 h 1.618 c 1.269,0 1.506,-0.846 1.506,-2.29 0,-0.713 0.108,-2.342 -1.546,-2.342 h -1.578 z m 0.968,-3.92 h 0.469 c 0.589,0 0.705,0.443 0.705,1.604 0,0.854 0,1.604 -0.674,1.604 h -0.5 v -3.208"/><path inkscape:connector-curvature="0" id="path1365" style="opacity:1;fill:#004c6c;fill-opacity:1;fill-rule:nonzero;stroke:none;stop-opacity:1" d="m 85.833298,5.495384 v 4.632 h 2.528 v -0.712 h -1.56 v -1.141 h 1.437 v -0.713 h -1.437 v -1.354 h 1.611 v -0.712 z"/><path inkscape:connector-curvature="0" id="path1369" style="opacity:1;fill:#004c6c;fill-opacity:1;fill-rule:nonzero;stroke:none;stop-opacity:1" d="m 91.561298,5.419584 c -1.199,0 -1.424,0.704 -1.372,1.506 h 0.969 c 0,-0.441 0.019,-0.815 0.551,-0.815 0.328,0 0.488,0.213 0.488,0.527 0,0.834 -1.95,0.885 -1.95,2.265 0,0.723 0.347,1.302 1.526,1.302 0.943,0 1.412,-0.423 1.348,-1.392 h -0.943 c 0,0.346 -0.057,0.7 -0.45,0.7 -0.314,0 -0.5,-0.174 -0.5,-0.495 0,-0.879 1.951,-0.803 1.951,-2.257 0,-1.201 -0.88,-1.341 -1.618,-1.341"/></g></g></g></g></svg>